<svg width="103" height="41" viewBox="0 0 103 41" fill="none" xmlns="http://www.w3.org/2000/svg">
<g clip-path="url(#clip0_3536_2)">
<path fill-rule="evenodd" clip-rule="evenodd" d="M26.5578 26.6976L29.724 29.8301L35.2715 24.3417C37.4006 22.2352 37.4006 18.8191 35.2715 16.7126L29.6691 11.1699L26.5029 14.3024L28.9391 16.7126C31.0682 18.8191 31.0682 22.2352 28.9391 24.3417L26.5578 26.6976Z" fill="#F15A22"/>
<path fill-rule="evenodd" clip-rule="evenodd" d="M20.7806 32.4153L18.4339 34.735L7.92873 24.3437C5.79963 22.2352 5.79963 18.8211 7.92873 16.7147L18.4319 6.32131L20.7216 8.58669L23.8878 5.4542L18.4339 0.0563354L1.59634 16.7126C-0.532763 18.8191 -0.532763 22.2352 1.59634 24.3417L18.4319 40.998L23.9427 35.5458L20.7806 32.4153Z" fill="#F26522"/>
<path fill-rule="evenodd" clip-rule="evenodd" d="M15.1764 16.6563C13.0473 18.7627 13.0473 22.1789 15.1764 24.2853L32.014 40.9437L48.8516 24.2853C50.9807 22.1789 50.9807 18.7627 48.8516 16.6563L32.014 0L15.1764 16.6563ZM42.5171 16.6563C44.6462 18.7627 44.6462 22.1789 42.5171 24.2853L32.012 34.6787L21.5068 24.2853C19.3777 22.1789 19.3777 18.7627 21.5068 16.6563L32.012 6.26498L42.5171 16.6563Z" fill="#F26522"/>
<path d="M64.7982 18.9136H57.1196V6.55872H64.6152V7.93685H59.0311V11.864H63.8791V13.2442H59.0311V17.5335H64.7982V18.9136Z" fill="black"/>
<path d="M76.5885 6.55872V14.3165C76.5885 14.9704 76.4625 15.586 76.2123 16.1614C75.9622 16.7368 75.6165 17.2398 75.1752 17.6703C74.734 18.1008 74.2114 18.4409 73.6054 18.6883C72.9994 18.9358 72.3344 19.0605 71.6125 19.0605C70.9394 19.0605 70.3029 18.9458 69.703 18.7165C69.1031 18.4851 68.5765 18.1672 68.125 17.7628C67.6715 17.3565 67.3136 16.8676 67.0493 16.2922C66.7849 15.7168 66.6548 15.083 66.6548 14.393V6.55872H68.4545V14.4634C68.4545 14.9482 68.5419 15.3868 68.7208 15.7812C68.8978 16.1755 69.1377 16.5155 69.4387 16.7992C69.7376 17.0848 70.0813 17.3021 70.4676 17.453C70.852 17.6039 71.2465 17.6804 71.6532 17.6804C72.1046 17.6804 72.5276 17.5979 72.9201 17.4349C73.3125 17.272 73.6521 17.0466 73.9389 16.7629C74.2256 16.4793 74.4533 16.1453 74.6181 15.7651C74.7828 15.3828 74.8662 14.9744 74.8662 14.5378V6.55872H76.5885Z" fill="black"/>
<path d="M86.2499 18.9136C85.9936 18.3825 85.6866 17.8152 85.3327 17.2156C84.9769 16.6161 84.623 16.0608 84.2672 15.5538C83.9113 15.0448 83.5758 14.6243 83.2565 14.2903C82.9372 13.9564 82.6871 13.7894 82.5041 13.7894H81.2738V18.9136H79.3623V6.5567H83.1833C83.7222 6.5567 84.2204 6.6412 84.68 6.8102C85.1396 6.9792 85.534 7.21861 85.8635 7.52844C86.1929 7.83625 86.4552 8.21248 86.6444 8.65509C86.8335 9.0977 86.9291 9.59061 86.9291 10.1358C86.9291 10.9003 86.7277 11.5663 86.3231 12.1356C85.9184 12.705 85.3734 13.1054 84.6881 13.3347C85.0074 13.5641 85.3104 13.8759 85.5971 14.2702C85.8858 14.6646 86.1705 15.079 86.4512 15.5156L86.6708 15.8616L88.3423 18.9136H86.2499ZM83.0816 12.4092C83.3765 12.4092 83.6408 12.3489 83.8767 12.2282C84.1106 12.1075 84.3099 11.9445 84.4766 11.7473C84.6434 11.5462 84.7694 11.3148 84.8549 11.0472C84.9423 10.7816 84.983 10.496 84.983 10.1942C84.983 9.86624 84.9281 9.56647 84.8162 9.29486C84.7064 9.02125 84.558 8.78586 84.3729 8.58668C84.1879 8.38751 83.9723 8.22857 83.7263 8.11389C83.4802 7.99922 83.2158 7.94087 82.9332 7.94087H81.2718V12.4113H83.0816V12.4092Z" fill="black"/>
<path d="M95.6527 6.42993C96.521 6.42993 97.3262 6.58485 98.0685 6.89467C98.8087 7.20249 99.4513 7.63504 99.9963 8.19233C100.541 8.74761 100.966 9.41354 101.273 10.1881C101.578 10.9627 101.733 11.8137 101.733 12.7452C101.733 13.7129 101.574 14.5861 101.255 15.3687C100.938 16.1473 100.503 16.8112 99.9515 17.3544C99.4004 17.8996 98.7538 18.3201 98.0136 18.6159C97.2734 18.9136 96.4803 19.0605 95.6364 19.0605C94.766 19.0605 93.9587 18.9096 93.2104 18.6058C92.4621 18.304 91.8215 17.8775 91.2826 17.3262C90.7437 16.777 90.3208 16.1131 90.0157 15.3385C89.7087 14.566 89.5562 13.7129 89.5562 12.7814C89.5562 11.8358 89.7127 10.9748 90.0239 10.1962C90.335 9.41555 90.7641 8.74761 91.309 8.19032C91.854 7.63303 92.4966 7.20048 93.2368 6.89266C93.9791 6.58485 94.7843 6.42993 95.6527 6.42993ZM95.6527 17.6783C96.2769 17.6783 96.8382 17.5536 97.3323 17.3061C97.8285 17.0587 98.2535 16.7146 98.6094 16.2781C98.9653 15.8415 99.2378 15.3244 99.4269 14.7309C99.616 14.1354 99.7116 13.4856 99.7116 12.7834C99.7116 12.0431 99.6099 11.3651 99.4086 10.7535C99.2073 10.1418 98.9246 9.61674 98.5647 9.17815C98.2027 8.74158 97.7736 8.40559 97.2795 8.16819C96.7833 7.93079 96.2342 7.8141 95.6364 7.8141C95.0101 7.8141 94.4508 7.94286 93.9547 8.19636C93.4585 8.45187 93.0335 8.79992 92.6776 9.24253C92.3217 9.68514 92.0493 10.2082 91.8601 10.8078C91.671 11.4093 91.5754 12.0551 91.5754 12.7452C91.5754 13.4856 91.6751 14.1596 91.8784 14.7651C92.0798 15.3727 92.3624 15.8918 92.7223 16.3223C93.0823 16.7529 93.5114 17.0888 94.0075 17.3242C94.5057 17.5596 95.0548 17.6783 95.6527 17.6783Z" fill="black"/>
<path d="M60.9588 22.2131C61.5465 22.2131 62.0875 22.3077 62.5836 22.4948C63.0798 22.6819 63.5048 22.9434 63.8607 23.2754C64.2145 23.6094 64.4931 24.0138 64.6965 24.4926C64.8978 24.9714 64.9995 25.5025 64.9995 26.082C64.9995 26.6996 64.8896 27.2489 64.668 27.7277C64.4484 28.2065 64.1474 28.6089 63.7692 28.9348C63.3889 29.2627 62.9517 29.5102 62.4555 29.6792C61.9593 29.8482 61.4347 29.9347 60.8856 29.9347H59.0311V34.5681H57.1216V22.2111H60.9588V22.2131ZM60.9405 28.5566C61.577 28.5566 62.0793 28.3212 62.4474 27.8464C62.8154 27.3756 62.9985 26.7861 62.9985 26.084C62.9985 25.3577 62.7992 24.7602 62.4006 24.2954C62.002 23.8287 61.4855 23.5953 60.849 23.5953H59.0311V28.5566H60.9405Z" fill="black"/>
<path d="M73.6317 34.5701C73.3755 34.0369 73.0684 33.4696 72.7146 32.87C72.3587 32.2705 72.0049 31.7152 71.649 31.2082C71.2931 30.6992 70.9576 30.2787 70.6383 29.9448C70.3191 29.6108 70.069 29.4438 69.8859 29.4438H68.6557V34.5681H66.7441V22.2111H70.5651C71.104 22.2111 71.6022 22.2976 72.0618 22.4666C72.5214 22.6356 72.9159 22.875 73.2453 23.1849C73.5768 23.4927 73.8371 23.8689 74.0262 24.3115C74.2153 24.7541 74.3109 25.247 74.3109 25.7923C74.3109 26.5568 74.1096 27.2227 73.7049 27.7921C73.3002 28.3614 72.7552 28.7618 72.0699 28.9911C72.3892 29.2205 72.6922 29.5323 72.9789 29.9267C73.2677 30.321 73.5524 30.7354 73.833 31.172L74.0526 31.5181L75.7242 34.5721H73.6317V34.5701ZM70.4635 28.0637C70.7583 28.0637 71.0227 28.0033 71.2565 27.8826C71.4904 27.7619 71.6897 27.6009 71.8564 27.4018C72.0232 27.2026 72.1492 26.9692 72.2347 26.7016C72.3221 26.4361 72.3648 26.1504 72.3648 25.8486C72.3648 25.5207 72.3099 25.2209 72.1981 24.9493C72.0882 24.6757 71.9398 24.4403 71.7547 24.2411C71.5697 24.0419 71.3562 23.883 71.1081 23.7683C70.862 23.6536 70.5977 23.5953 70.315 23.5953H68.6536V28.0657H70.4635V28.0637Z" fill="black"/>
<path d="M79.1062 22.2151H77.1968V34.572H79.1062V22.2151Z" fill="black"/>
<path d="M83.2568 34.5701H81.6768V22.2131H83.4764L90.2542 31.5362V22.2131H91.8342V34.5701H90.1627L83.2568 25.1022V34.5701Z" fill="black"/>
<path d="M103 22.2131V23.5953H99.126V34.5701H97.2145V23.5953H93.3203V22.2131H103Z" fill="black"/>
</g>
<defs>
<clipPath id="clip0_3536_2">
<rect width="103" height="41" fill="white"/>
</clipPath>
</defs>
</svg>
